<?xml version="1.0" standalone="no"?>
<!DOCTYPE svg PUBLIC "-//W3C//DTD SVG 20010904//EN"
 "http://www.w3.org/TR/2001/REC-SVG-20010904/DTD/svg10.dtd">
<svg version="1.0" xmlns="http://www.w3.org/2000/svg" x="12.439" y="144.667"
  width="159.544" height="134.167" viewBox="0 0 1427.000000 1427.000000"
 preserveAspectRatio="xMidYMid meet">

<g transform="translate(0.000000,1427.000000) scale(0.100000,-0.100000)"
fill="#000000" stroke="none">
<path d="M6904 14246 c-209 -40 -355 -104 -506 -225 -123 -97 -390 -355 -923
-892 -280 -283 -1266 -1272 -2190 -2199 -3102 -3111 -3006 -3013 -3074 -3120
-88 -136 -118 -217 -163 -435 -37 -177 -39 -198 -34 -310 8 -186 52 -327 168
-530 127 -225 -2 -92 2575 -2660 3551 -3540 3574 -3563 3661 -3623 104 -72
297 -166 407 -197 195 -56 420 -56 643 0 133 34 311 124 427 216 50 40 665
647 1391 1373 1438 1439 4562 4580 4667 4693 107 115 201 274 252 426 50 151
70 441 40 610 -29 164 -114 353 -233 513 -48 66 -829 854 -3016 3042 -1623
1625 -2982 2980 -3021 3011 -153 126 -354 237 -520 287 -82 25 -107 27 -285
30 -132 2 -218 -1 -266 -10z m356 -96 c211 -26 393 -100 565 -229 33 -24 888
-870 1900 -1880 1012 -1010 2359 -2353 2993 -2986 646 -644 1178 -1183 1210
-1225 153 -200 227 -426 226 -685 -1 -261 -75 -481 -232 -690 -25 -33 -878
-895 -1896 -1915 -1018 -1020 -2362 -2367 -2986 -2994 -705 -706 -1165 -1161
-1215 -1199 -218 -164 -522 -248 -786 -218 -228 26 -404 95 -584 230 -33 24
-854 837 -1825 1805 -971 969 -2318 2312 -2993 2986 -740 738 -1252 1256
-1288 1304 -169 223 -252 520 -220 794 26 220 98 401 230 577 24 33 868 886
1875 1895 1007 1009 2351 2356 2986 2993 654 656 1188 1183 1230 1216 229 173
529 255 810 221z"/>
<path d="M6990 14033 c-75 -11 -175 -39 -250 -70 -197 -81 -52 58 -2525 -2422
-3579 -3589 -3734 -3745 -3784 -3813 -139 -191 -199 -398 -188 -646 6 -139 26
-231 78 -353 79 -186 -47 -56 2448 -2543 3602 -3593 3713 -3703 3761 -3739
181 -136 351 -196 581 -204 237 -9 422 44 623 180 55 36 1283 1263 5363 5357
386 388 721 730 743 760 143 191 207 400 197 650 -5 148 -24 233 -78 361 -79
187 45 57 -2413 2509 -3543 3532 -3748 3737 -3796 3773 -186 140 -393 208
-624 206 -61 -1 -122 -3 -136 -6z m320 -628 c72 -31 124 -84 4373 -4325 1932
-1929 1752 -1731 1752 -1930 0 -205 132 -54 -1329 -1520 -699 -701 -2045
-2050 -2991 -2998 -1968 -1972 -1765 -1787 -1965 -1787 -205 0 -52 -134 -1530
1339 -707 705 -2056 2051 -2998 2991 -1960 1957 -1777 1755 -1777 1955 0 205
-134 52 1339 1530 3356 3367 4694 4703 4734 4727 72 43 118 53 227 50 85 -2
110 -7 165 -32z m-1057 -283 l137 -138 -34 -33 -34 -33 -69 37 -68 38 48 -49
c26 -27 47 -54 47 -60 0 -6 -13 -22 -28 -37 l-28 -27 -139 140 -140 140 31 31
31 31 74 -37 74 -37 -55 56 -54 56 29 30 c16 16 31 30 35 30 3 0 67 -62 143
-138z m2144 -70 c67 -78 69 -104 13 -163 -31 -33 -45 -40 -64 -37 -23 5 -25 2
-20 -18 5 -19 -6 -36 -57 -89 l-63 -66 -35 36 -36 35 58 58 c52 52 70 82 49
82 -4 0 -34 -27 -67 -60 l-59 -60 -38 37 -38 37 137 138 c76 76 144 137 152
136 8 -2 39 -31 68 -66z m-2360 -148 l155 -116 -33 -34 c-38 -39 -49 -41 -74
-14 -14 15 -21 17 -31 9 -11 -9 -10 -17 7 -41 l21 -30 -33 -34 c-18 -19 -36
-34 -40 -34 -6 0 -212 263 -233 298 -6 10 6 28 40 63 27 27 52 49 57 49 4 0
78 -52 164 -116z m2606 -156 l-27 -28 -26 25 -26 25 -27 -28 -27 -28 22 -22
22 -22 -26 -27 -27 -27 -24 22 -23 22 -29 -30 -29 -30 27 -28 27 -28 -28 -27
-28 -27 -64 65 -65 65 140 140 140 140 62 -62 63 -62 -27 -28z m-2893 45 l31
-28 -35 -34 c-35 -34 -36 -34 -56 -16 -14 12 -24 15 -30 9 -7 -7 -4 -17 10
-29 18 -17 26 -17 89 -6 81 15 107 6 160 -54 34 -40 38 -62 16 -104 -42 -82
-123 -104 -185 -52 l-35 29 34 36 35 36 28 -27 c23 -22 31 -24 41 -14 10 10 6
17 -17 37 -17 15 -35 23 -45 19 -8 -3 -43 -9 -77 -12 -58 -5 -62 -4 -98 28
-64 56 -66 100 -8 163 50 53 97 59 142 19z m3020 -108 l34 -35 -49 -51 -50
-51 67 33 68 33 30 -29 c16 -16 30 -32 30 -37 0 -4 -37 -27 -83 -49 l-82 -41
-54 -100 -53 -100 -39 38 -39 38 27 45 c14 25 33 57 41 71 9 14 -10 0 -41 -30
l-57 -54 -37 37 -38 37 140 140 c77 77 142 140 145 140 4 0 21 -16 40 -35z
m-3037 -301 c13 -63 -61 -144 -131 -144 -32 0 -48 12 -156 120 l-121 120 38
37 37 38 119 -119 c76 -76 121 -114 126 -106 4 7 -38 56 -109 128 l-116 118
38 37 37 38 116 -119 c78 -79 118 -128 122 -148z m3311 27 l48 -48 -118 -159
c-64 -88 -119 -161 -121 -163 -5 -7 -73 62 -73 74 0 7 9 20 20 30 15 13 17 21
9 31 -9 11 -16 9 -40 -8 l-29 -22 -35 34 c-19 19 -35 37 -35 40 0 10 301 240
314 240 7 0 33 -22 60 -49z m-3724 -26 c38 -20 73 -71 67 -96 -4 -15 -1 -19
11 -16 26 6 62 -17 115 -70 l47 -49 -35 -34 -35 -34 -58 57 c-52 51 -82 70
-82 50 0 -4 27 -35 60 -68 l60 -61 -38 -37 -38 -37 -139 141 -140 140 68 65
c70 67 89 74 137 49z m3874 -164 c-9 -14 -28 -41 -42 -60 -27 -36 -23 -35 45
11 23 15 45 28 49 28 10 0 64 -52 64 -61 0 -4 -48 -33 -107 -64 -71 -38 -128
-77 -165 -113 l-58 -56 -35 34 -35 34 58 61 c35 37 80 103 115 169 l59 108 34
-33 c33 -32 33 -33 18 -58z m-3884 -281 c0 -39 -38 -93 -80 -115 -60 -31 -74
-24 -207 107 l-123 122 32 33 c18 18 37 33 42 33 6 0 61 -50 123 -112 62 -62
116 -109 120 -105 4 4 -43 58 -105 120 -62 62 -112 117 -112 122 0 5 15 24 32
42 l33 34 122 -124 c108 -108 123 -128 123 -157z m4114 91 l48 -48 -118 -159
c-64 -88 -119 -161 -121 -163 -5 -7 -73 62 -73 74 0 7 9 20 20 30 15 13 17 21
9 31 -9 11 -16 9 -40 -8 l-29 -22 -35 34 c-19 19 -35 37 -35 40 0 10 301 240
314 240 7 0 33 -22 60 -49z m-4442 -148 c63 -65 119 -128 122 -141 8 -23 -12
-59 -53 -96 -21 -19 -22 -19 -45 4 -21 19 -23 25 -13 41 10 17 -1 32 -101 132
l-112 112 32 33 c18 17 37 32 43 32 6 0 63 -53 127 -117z m4626 -33 c39 -24
72 -75 72 -111 0 -29 -34 -79 -54 -79 -7 0 -25 13 -41 30 -27 28 -27 31 -12
48 18 20 22 42 9 42 -5 0 -17 -9 -26 -19 -16 -18 -17 -27 -6 -88 15 -81 5
-109 -56 -162 -42 -37 -73 -37 -125 0 -66 47 -77 120 -26 175 l32 35 34 -35
35 -36 -29 -30 c-21 -22 -26 -33 -18 -41 18 -18 67 36 59 64 -3 12 -9 47 -12
77 -6 62 11 97 62 131 37 24 61 24 102 -1z m-4830 -219 c78 -58 142 -107 142
-111 0 -3 -15 -21 -34 -39 l-34 -33 -30 21 c-24 17 -32 18 -41 7 -8 -10 -6
-17 9 -31 11 -10 20 -23 20 -30 0 -12 -68 -81 -73 -74 -2 2 -57 73 -122 157
l-118 154 53 53 c45 46 56 52 70 42 9 -7 80 -59 158 -116z m5076 -30 c34 -35
46 -53 40 -63 -23 -38 -227 -308 -233 -308 -4 0 -22 15 -40 34 l-34 35 22 27
c16 21 19 30 10 41 -10 11 -15 10 -34 -7 -29 -27 -36 -26 -75 15 l-33 34 29
23 c156 124 281 217 289 217 6 1 32 -21 59 -48z m-5293 -143 c62 -79 117 -149
122 -156 8 -9 -1 -25 -33 -57 -24 -25 -47 -45 -50 -45 -3 0 -39 26 -80 57 -41
31 -70 50 -64 42 6 -8 32 -43 59 -77 l47 -64 -43 -44 c-24 -24 -46 -44 -49
-44 -3 0 -75 55 -159 121 l-152 122 32 33 c18 19 36 34 39 34 4 0 45 -32 91
-72 46 -40 79 -66 73 -58 -6 8 -36 47 -67 86 -32 39 -57 75 -57 81 0 5 15 24
34 42 39 38 36 39 127 -41 37 -32 69 -58 73 -58 3 0 -24 36 -59 80 -36 44 -65
84 -65 87 0 6 61 73 66 73 1 0 53 -64 115 -142z m5566 -134 c41 -20 83 -78 83
-116 0 -16 -12 -41 -27 -58 l-28 -31 -34 35 c-33 34 -34 37 -18 54 18 20 23
42 9 42 -5 0 -17 -9 -27 -20 -16 -17 -16 -26 -5 -85 7 -35 10 -75 6 -88 -8
-32 -90 -107 -116 -107 -57 0 -130 73 -130 130 0 35 41 100 64 100 7 0 25 -13
41 -30 l29 -30 -29 -30 c-23 -24 -26 -33 -16 -43 10 -10 17 -6 37 17 14 16 23
35 20 42 -3 8 -8 43 -12 79 l-7 65 45 45 c50 49 63 53 115 29z m-5961 -95 c42
-25 42 -37 4 -74 -29 -28 -30 -28 -50 -10 -26 24 -52 6 -30 -20 11 -14 27 -15
102 -9 85 6 89 6 123 -20 50 -39 69 -79 55 -119 -14 -42 -56 -84 -96 -97 -37
-12 -74 1 -108 39 -19 21 -19 22 14 56 l34 35 28 -27 c20 -19 31 -24 39 -16 8
8 5 17 -11 33 -20 20 -28 22 -84 15 -33 -4 -72 -7 -84 -6 -54 3 -120 79 -108
125 12 46 87 116 125 116 7 0 29 -9 47 -21z m6184 -124 l34 -36 -142 -142
-142 -142 -37 38 -38 37 140 140 c77 77 142 140 145 140 4 0 21 -16 40 -35z
m-6287 -173 l137 -138 -38 -37 -38 -37 -139 140 -139 140 34 35 c19 19 36 35
40 35 3 0 67 -62 143 -138z m6444 22 c64 -49 79 -110 38 -156 -30 -35 -35 -35
-68 0 -31 32 -33 44 -12 62 19 16 19 30 1 30 -33 0 -40 -28 -28 -102 11 -60
10 -74 -4 -104 -22 -45 -73 -84 -111 -84 -63 0 -142 87 -128 141 3 13 19 40
35 59 l29 35 35 -34 36 -35 -25 -26 c-14 -14 -25 -31 -25 -38 0 -18 25 -14 44
7 15 16 16 31 10 105 l-7 86 40 40 c49 49 89 53 140 14z m-6657 -61 l31 -28
-35 -34 c-35 -34 -36 -34 -56 -16 -14 12 -24 15 -30 9 -7 -7 -4 -17 10 -29 18
-17 26 -17 89 -6 81 15 107 6 160 -54 34 -40 38 -62 16 -104 -42 -82 -123
-104 -185 -52 l-35 29 34 36 35 36 28 -27 c23 -22 31 -24 41 -14 10 10 6 17
-17 37 -17 15 -35 23 -45 19 -8 -3 -43 -9 -77 -12 -58 -5 -62 -4 -98 28 -64
56 -66 100 -8 163 50 53 97 59 142 19z m6883 -171 l77 -78 -30 -29 c-29 -28
-30 -28 -50 -10 -21 19 -22 18 -128 -88 -59 -59 -112 -107 -118 -107 -13 0
-64 52 -64 65 0 5 48 58 107 117 l108 108 -23 22 -22 22 27 28 c15 15 29 28
33 28 3 0 40 -35 83 -78z m-7008 -117 c85 -64 155 -119 155 -123 0 -5 -16 -23
-35 -42 l-35 -34 -25 24 c-19 17 -28 21 -36 13 -8 -8 -6 -19 9 -41 l21 -29
-38 -37 -39 -38 -120 159 -121 158 52 53 c28 28 52 52 54 52 1 0 72 -52 158
-115z m7200 -75 l59 -60 -29 -30 -29 -30 -26 25 -26 25 -24 -25 -24 -25 22
-22 22 -22 -27 -28 -27 -28 -23 22 -23 22 -30 -29 -30 -29 27 -28 27 -28 -24
-25 c-13 -14 -28 -25 -35 -25 -6 0 -37 27 -70 60 l-60 60 140 140 c77 77 142
140 145 140 3 0 32 -27 65 -60z m-7393 -127 l138 -137 -37 -38 -37 -38 -57 56
c-35 35 -62 54 -69 49 -8 -5 7 -27 46 -66 l59 -59 -38 -37 -37 -38 -135 135
c-74 74 -135 140 -135 145 0 6 15 25 33 43 l33 32 44 -45 c40 -41 70 -57 70
-38 0 4 -21 29 -47 55 l-47 48 34 35 c19 19 36 35 39 35 3 0 68 -62 143 -137z
m7583 -120 c-89 -118 -88 -113 -11 -55 l70 53 48 -48 48 -47 -137 -138 c-76
-76 -142 -138 -147 -138 -13 0 -56 41 -56 54 0 6 35 46 78 90 l77 79 -94 -72
-94 -72 -23 22 c-27 25 -29 19 49 124 l60 80 -74 -72 c-41 -40 -79 -73 -84
-73 -5 0 -22 12 -37 27 l-29 27 143 143 143 143 47 -47 48 -47 -25 -33z
m-7796 -104 l151 -113 -36 -37 -37 -38 -28 22 c-22 16 -32 18 -41 9 -9 -9 -6
-18 12 -37 l24 -26 -40 -39 -39 -40 -118 155 c-64 84 -117 157 -117 162 0 14
95 103 106 99 6 -2 79 -55 163 -117z m-199 -194 l134 -134 -29 -31 c-16 -16
-33 -30 -39 -30 -6 0 -41 30 -79 68 l-69 67 63 -83 c61 -80 62 -82 44 -102
-10 -11 -23 -20 -28 -20 -6 0 -44 25 -86 56 l-76 57 70 -72 69 -71 -29 -30
c-16 -16 -34 -30 -40 -30 -5 0 -71 61 -145 135 l-134 135 48 49 49 50 58 -45
c32 -24 60 -44 64 -44 3 0 -15 27 -41 60 l-47 61 43 44 c24 25 49 45 55 45 6
0 71 -61 145 -135z m8350 0 l34 -35 -49 -50 -49 -50 65 35 66 35 33 -35 c19
-19 32 -36 29 -39 -2 -2 -40 -22 -84 -44 -80 -40 -80 -40 -124 -123 -63 -119
-58 -116 -102 -73 l-37 36 40 67 40 66 -54 -52 -53 -53 -38 37 -37 38 137 137
c76 76 140 138 143 138 4 0 21 -16 40 -35z m-8608 -527 l-33 -33 -71 37 -71
37 54 -55 53 -54 -32 -32 -32 -33 -140 140 -140 139 32 33 32 33 75 -41 76
-40 -57 58 -58 58 32 33 33 32 140 -140 140 -140 -33 -32z m8846 292 c39 -24
72 -75 72 -112 0 -50 -170 -230 -231 -243 -63 -14 -144 56 -144 125 0 29 11
48 50 94 73 84 161 156 193 156 15 0 42 -9 60 -20z m222 -224 l43 -45 -40 -53
c-62 -83 -61 -86 8 -31 l66 52 49 -50 48 -49 -139 -140 -139 -140 -33 32 -33
32 77 80 c81 82 74 80 -58 -19 l-46 -35 -22 24 -23 24 62 84 63 83 -74 -73
-75 -72 -34 35 -34 35 134 135 c74 74 139 135 145 135 6 0 30 -20 55 -44z
m-9395 -111 c85 -64 155 -119 155 -123 0 -5 -16 -23 -35 -42 l-35 -34 -25 24
c-19 17 -28 21 -36 13 -8 -8 -6 -19 9 -41 l21 -29 -38 -37 -39 -38 -120 159
-121 158 52 53 c28 28 52 52 54 52 1 0 72 -52 158 -115z m-193 -202 l138 -137
-32 -33 -32 -33 -75 41 -76 41 58 -59 57 -59 -28 -27 c-15 -15 -32 -27 -38
-27 -5 0 -70 61 -144 135 l-135 135 33 32 32 32 77 -38 78 -38 -57 59 -58 59
27 27 c15 15 30 27 33 27 2 0 67 -62 142 -137z m9948 -82 c0 -24 -12 -44 -47
-82 -59 -63 -82 -69 -134 -34 l-41 27 -54 -53 -54 -53 -37 37 -38 37 140 140
140 141 63 -65 c49 -51 62 -70 62 -95z m-10177 -110 c110 -113 117 -122 117
-160 0 -76 -94 -148 -159 -122 -15 7 -78 62 -139 124 l-112 113 38 37 38 37
114 -115 c63 -63 118 -115 122 -115 24 0 -4 37 -104 137 l-112 113 34 35 c19
19 37 35 40 35 4 0 59 -54 123 -119z m10222 -135 c-62 -66 -111 -125 -108
-129 3 -5 59 44 124 109 l119 119 37 -38 38 -37 -119 -119 c-66 -66 -130 -122
-142 -125 -73 -19 -171 88 -145 157 6 15 61 78 122 142 l112 116 38 -37 38
-37 -114 -121z m-10498 -5 c50 -36 83 -82 83 -113 -1 -12 -12 -36 -25 -53
l-25 -30 55 -55 55 -56 -38 -37 -38 -37 -139 140 -139 140 44 46 c46 47 96 84
116 84 6 0 29 -13 51 -29z m10891 -208 c-27 -26 -28 -26 -48 -8 -21 19 -22 18
-133 -93 l-112 -112 -38 37 -37 38 112 112 113 113 -23 22 -22 22 27 28 27 29
80 -81 81 -80 -27 -27z m-10906 -255 l-32 -33 -81 80 -82 80 67 -86 c36 -48
66 -91 66 -96 0 -18 -38 -45 -52 -37 -7 4 -49 34 -93 67 l-80 60 80 -82 80
-81 -33 -32 -32 -33 -140 140 -140 140 48 48 48 48 70 -53 c38 -28 64 -45 58
-37 -6 7 -30 38 -53 68 l-42 54 48 49 48 48 140 -140 140 -140 -33 -32z
m11081 80 l-27 -28 -26 25 -26 25 -27 -28 -27 -28 22 -22 22 -22 -26 -27 -27
-27 -24 22 -23 22 -29 -30 -29 -30 27 -28 27 -28 -28 -27 -28 -27 -64 65 -65
65 140 140 140 140 62 -62 63 -62 -27 -28z m155 -102 c38 -39 62 -73 62 -86 0
-52 -72 -127 -111 -117 -16 4 -19 0 -19 -25 0 -22 -13 -43 -51 -84 -29 -30
-57 -54 -64 -54 -6 0 -24 14 -40 30 l-29 30 57 58 c52 52 70 82 49 82 -4 0
-32 -25 -62 -55 -30 -30 -59 -55 -64 -55 -6 0 -25 14 -43 32 l-33 32 137 138
c76 76 140 138 144 138 3 0 34 -29 67 -64z m-11615 -84 l137 -138 -38 -37 -38
-37 -139 140 -139 140 34 35 c19 19 36 35 40 35 3 0 67 -62 143 -138z m-26
-299 l-37 -38 -60 60 c-33 32 -63 56 -67 52 -4 -4 20 -34 52 -67 l60 -60 -38
-37 -37 -38 -140 140 -140 139 37 38 37 38 48 -47 c26 -26 51 -44 55 -40 4 4
-14 29 -40 55 l-47 48 37 37 38 37 140 -140 140 -140 -38 -37z m11303 -2198
c80 -59 146 -111 148 -114 1 -4 -13 -22 -32 -40 l-35 -34 -27 22 c-20 16 -30
18 -40 10 -11 -9 -9 -16 8 -40 l22 -30 -37 -36 c-20 -20 -38 -35 -40 -32 -2 2
-57 73 -122 158 l-117 153 53 54 c32 33 57 50 63 45 6 -5 76 -57 156 -116z
m-10948 -173 c-62 -65 -112 -122 -112 -126 0 -23 39 8 135 109 l110 116 38
-38 37 -39 -123 -122 c-108 -107 -128 -122 -157 -122 -66 0 -140 88 -125 148
3 14 58 78 123 144 l116 119 35 -35 34 -35 -111 -119z m10449 -182 c33 -31 40
-44 35 -63 -5 -21 -2 -24 25 -24 23 0 43 -12 84 -53 30 -30 55 -59 55 -65 0
-6 -14 -24 -30 -40 l-30 -29 -63 61 c-35 34 -68 58 -76 56 -9 -4 8 -27 50 -69
69 -70 70 -77 15 -118 l-27 -20 -137 137 -137 138 66 64 c83 81 108 84 170 25z
m-9937 -201 c-19 -38 -34 -72 -34 -76 0 -4 26 18 58 50 l58 57 28 -29 29 -30
-133 -138 c-72 -76 -135 -139 -139 -141 -4 -1 -20 11 -36 28 l-29 30 38 78 38
77 -59 -57 -58 -57 -27 23 c-16 12 -28 25 -28 30 0 4 60 70 133 146 l132 138
32 -30 32 -31 -35 -68z m9549 -297 c101 -103 117 -123 117 -151 0 -64 -52
-119 -120 -128 -39 -5 -41 -4 -162 115 l-123 121 38 38 37 38 119 -119 c76
-76 121 -114 126 -106 4 7 -38 57 -110 129 l-117 119 29 30 c15 17 33 31 39
31 5 1 63 -52 127 -117z m-9196 -221 c-72 -75 -136 -138 -140 -140 -5 -2 -24
11 -42 29 l-34 33 136 144 137 143 38 -37 37 -37 -132 -135z m8672 -125 c41
-22 101 -92 101 -120 0 -14 -12 -39 -26 -56 l-27 -31 52 -53 c28 -28 51 -56
51 -61 0 -13 -52 -65 -65 -65 -5 0 -71 61 -145 135 l-135 135 55 56 c73 75 93
83 139 60z m-8242 -38 c18 -18 33 -36 33 -41 0 -6 -17 -31 -37 -56 -122 -151
-122 -152 3 -43 39 34 75 62 80 62 12 0 80 -68 73 -73 -124 -103 -301 -238
-307 -235 -5 1 -33 24 -62 50 l-52 48 114 160 c62 88 115 160 118 160 2 0 19
-14 37 -32z m7836 -425 c20 -16 36 -30 37 -34 0 -3 -16 -20 -35 -39 l-35 -34
-30 29 c-23 22 -33 26 -42 17 -8 -8 10 -33 77 -102 77 -78 125 -110 125 -82 0
14 -54 60 -74 64 -10 1 -24 11 -30 20 -9 15 -4 25 30 59 l41 41 73 -72 c78
-76 82 -92 32 -115 -12 -5 -22 -16 -22 -23 0 -8 -13 -27 -29 -43 -22 -22 -39
-29 -67 -29 -35 0 -47 9 -141 103 -88 88 -103 108 -103 136 0 44 25 88 63 111
45 28 87 25 130 -7z m-7325 -140 l-27 -27 -25 23 -25 23 -25 -28 -25 -29 21
-22 21 -23 -23 -25 -24 -25 -23 22 -24 22 -31 -32 -32 -32 27 -28 27 -28 -28
-27 -28 -27 -63 64 -63 63 138 142 138 142 60 -60 61 -61 -27 -27z m432 -403
c0 -43 -64 -113 -100 -108 -23 4 -26 1 -22 -24 4 -23 -6 -38 -56 -90 l-61 -63
-30 29 c-17 17 -31 32 -31 35 0 3 25 34 56 68 76 86 59 103 -22 22 l-64 -64
-36 36 -36 36 138 143 138 142 63 -66 c48 -51 63 -73 63 -96z m6530 25 l135
-135 -33 -32 -33 -33 -69 38 c-38 20 -73 37 -77 37 -4 0 18 -26 50 -58 l57
-58 -30 -29 -31 -29 -134 134 c-74 74 -135 139 -134 145 0 5 13 20 29 33 l29
23 70 -36 c39 -19 74 -35 78 -35 4 0 -19 27 -52 60 l-59 59 30 26 c16 14 31
25 34 25 3 0 66 -61 140 -135z m-340 -579 c0 -54 -59 -115 -118 -123 l-42 -6
-120 119 c-66 65 -120 122 -120 128 0 13 51 66 64 66 6 0 61 -50 122 -111 63
-63 118 -109 125 -107 9 3 -30 50 -105 126 l-120 122 35 36 34 35 122 -124
c113 -113 123 -127 123 -161z m-5830 229 c69 -36 93 -117 47 -163 l-27 -27
-32 32 c-31 32 -32 33 -13 53 15 16 16 23 6 33 -10 9 -17 7 -32 -12 -11 -14
-17 -31 -14 -40 4 -9 9 -46 12 -83 l6 -68 -45 -45 c-48 -48 -71 -54 -117 -30
-82 42 -104 122 -51 185 l29 35 35 -34 36 -35 -25 -26 c-14 -14 -25 -31 -25
-38 0 -19 25 -14 45 8 17 18 18 28 8 93 -12 84 -7 101 38 145 37 36 72 41 119
17z m322 -472 c-39 -43 -100 -107 -136 -143 l-66 -65 -36 36 -36 37 138 141
138 142 34 -35 35 -35 -71 -78z m5074 -186 c8 -24 -49 -107 -73 -107 -20 0
-42 36 -36 58 4 19 -14 42 -103 132 l-108 110 34 35 34 35 123 -122 c68 -68
126 -131 129 -141z m-4653 -85 l77 -78 -28 -27 -29 -27 -18 20 c-19 21 -19 20
-132 -92 l-113 -112 -34 33 -35 34 109 116 109 116 -20 21 c-19 21 -19 21 2
47 11 15 24 27 27 27 4 0 42 -35 85 -78z m4179 -159 l138 -137 -32 -33 -31
-32 -76 41 -76 41 53 -54 c28 -30 52 -59 52 -65 0 -6 -11 -21 -25 -34 l-26
-24 -139 139 -140 140 30 30 30 29 67 -34 c38 -19 73 -36 78 -38 6 -3 -16 22
-47 55 l-58 59 27 27 c15 15 30 27 33 27 2 0 67 -62 142 -137z m-3712 -305 c0
-11 -221 -318 -229 -318 -4 0 -22 16 -41 35 l-34 35 23 24 c39 42 6 64 -36 24
l-23 -22 -35 34 c-20 19 -34 38 -33 42 2 5 71 62 153 127 l150 118 52 -46 c29
-25 53 -49 53 -53z m3273 -142 c81 -59 147 -111 147 -115 0 -4 -16 -22 -35
-41 l-35 -34 -24 23 c-40 38 -64 6 -26 -34 l20 -21 -39 -38 -39 -38 -121 159
-121 158 52 52 c30 30 56 49 63 45 6 -4 78 -56 158 -116z m-2892 -234 c46 -47
58 -85 36 -121 -28 -47 -43 -49 -79 -14 -30 31 -31 33 -15 51 18 20 23 42 9
42 -5 0 -17 -9 -27 -20 -17 -18 -17 -26 -6 -88 8 -45 9 -76 3 -93 -13 -33 -71
-88 -101 -96 -54 -13 -141 66 -141 128 0 17 12 42 31 64 l32 36 33 -32 33 -32
-24 -29 c-14 -17 -23 -34 -19 -39 10 -16 31 -9 48 15 13 20 14 34 6 77 -17 90
-14 108 29 150 54 54 98 54 152 1z m2367 -109 l-22 -24 112 -112 112 -113 -35
-34 -35 -34 -113 112 -112 112 -23 -22 -22 -22 -27 27 -28 27 80 80 79 80 28
-27 28 -27 -22 -23z"/>
<path d="M7043 13316 c-23 -7 -56 -23 -75 -34 -18 -12 -512 -502 -1098 -1089
-586 -587 -1919 -1923 -2962 -2969 -1525 -1528 -1902 -1911 -1924 -1955 -24
-46 -29 -66 -29 -134 0 -144 -71 -65 1117 -1250 585 -583 1923 -1918 2973
-2966 1557 -1554 1920 -1912 1965 -1935 47 -24 67 -29 135 -29 145 0 59 -77
1300 1167 610 612 1945 1950 2966 2973 1504 1507 1862 1871 1885 1915 24 47
29 67 29 135 0 146 81 56 -1197 1330 -629 626 -1967 1961 -2973 2966 -1492
1488 -1840 1831 -1883 1853 -66 33 -166 43 -229 22z m181 -118 c14 -7 957
-942 2097 -2078 3664 -3652 3859 -3848 3880 -3893 24 -54 24 -107 -1 -160 -15
-30 -454 -477 -1571 -1597 -3892 -3903 -4363 -4373 -4404 -4391 -55 -25 -113
-24 -163 4 -26 13 -864 842 -2198 2172 -3517 3506 -3765 3756 -3785 3800 -25
54 -24 113 3 163 14 26 643 663 1627 1649 2785 2793 4289 4299 4305 4312 48
40 153 49 210 19z"/>
<path d="M4667 10780 c-20 -21 -45 -56 -55 -77 -25 -49 -62 -196 -62 -244 0
-21 -5 -41 -11 -45 -15 -9 -7 -407 8 -426 5 -7 11 -38 12 -68 2 -60 24 -226
47 -360 20 -113 76 -404 80 -408 3 -5 59 26 108 61 21 15 34 27 28 27 -25 0
-44 55 -76 211 -96 470 -125 869 -79 1109 12 64 21 139 20 167 -1 38 3 56 17
72 11 12 14 21 9 21 -6 0 -27 -18 -46 -40z"/>
<path d="M8030 10170 c-49 -5 -24 -7 100 -8 264 -4 401 -44 506 -149 131 -132
101 -336 -92 -638 -61 -96 -9 -33 75 90 111 164 168 311 158 410 -15 149 -146
270 -317 294 -75 10 -335 11 -430 1z"/>
<path d="M7875 10150 l-40 -7 37 -2 c20 0 40 4 43 9 3 6 5 9 3 9 -2 -1 -21 -5
-43 -9z"/>
<path d="M5225 9955 c-16 -8 -43 -25 -58 -38 l-28 -22 63 0 c47 0 75 -6 111
-25 62 -31 151 -112 202 -183 42 -60 52 -62 102 -30 l22 15 -28 36 c-15 21
-47 63 -71 95 -58 78 -112 123 -177 147 -64 24 -97 25 -138 5z"/>
<path d="M6363 9678 c-183 -68 -271 -322 -177 -511 91 -181 290 -249 465 -157
92 47 179 141 179 192 0 18 15 19 358 16 l357 -3 69 -34 c84 -41 183 -134 343
-318 62 -73 119 -136 126 -140 44 -27 337 -361 337 -384 0 -5 -646 -8 -1697
-7 l-1697 3 -19 60 c-38 125 -127 481 -127 513 l0 33 -62 -34 c-53 -29 -62
-39 -60 -58 6 -34 97 -360 128 -457 8 -23 14 -47 14 -52 0 -6 -26 -10 -57 -10
-73 0 -103 -8 -97 -25 7 -17 -43 -28 -82 -19 -48 11 -111 52 -118 76 -14 53
-6 109 24 168 17 33 26 60 20 60 -5 0 -83 -41 -172 -92 -90 -50 -223 -124
-295 -164 -155 -86 -183 -103 -183 -115 0 -5 223 -10 502 -11 l502 -3 20 -67
21 -68 58 0 c66 0 64 -8 33 93 l-15 47 2754 0 2755 0 0 28 c0 23 -9 33 -52 57
-43 25 -57 41 -87 100 -79 154 -165 243 -292 302 -64 30 -79 41 -79 60 0 12 5
25 11 29 40 25 -160 44 -251 25 -190 -41 -386 -221 -443 -408 l-22 -73 -170 0
c-206 0 -276 -7 -268 -26 10 -28 -104 -21 -208 12 -91 29 -142 71 -321 272
-67 75 -181 200 -253 277 -72 77 -168 181 -213 231 -99 112 -177 171 -300 230
-77 37 -92 48 -87 62 4 9 8 26 9 37 1 20 -5 20 -319 20 l-319 0 -6 -25 c-7
-30 -45 -46 -85 -36 -29 7 -73 49 -133 124 -18 23 -58 58 -89 78 -30 19 -57
44 -60 54 -5 18 -30 32 -88 49 -23 6 -45 3 -82 -11z"/>
<path d="M5740 9417 c-14 -6 -27 -12 -28 -13 -2 -1 51 -97 117 -213 67 -116
121 -213 121 -216 0 -2 9 -19 21 -37 l21 -33 -6 34 c-4 19 -13 42 -21 51 -9
10 -45 82 -81 161 -57 124 -75 165 -112 260 -6 14 -12 15 -32 6z"/>
<path d="M7886 8684 c-24 -17 -19 -23 11 -15 14 4 20 10 15 18 -5 8 -12 8 -26
-3z"/>
<path d="M7633 8015 c-156 -71 -203 -169 -203 -425 0 -271 31 -328 299 -559
143 -123 160 -154 161 -309 0 -89 -18 -138 -57 -152 -15 -6 -35 -14 -44 -19
-20 -12 -45 3 -63 37 -16 30 -26 298 -13 320 6 9 -22 12 -132 12 l-141 0 0
-127 c1 -155 19 -268 54 -327 119 -203 447 -238 622 -68 55 53 94 154 64 164
-6 2 -11 70 -14 163 -4 186 -18 279 -54 354 -30 64 -126 164 -262 273 -116 92
-141 132 -148 233 -4 71 9 122 29 110 5 -4 13 4 18 17 29 77 105 72 117 -7 1
-5 2 -52 3 -102 l1 -93 155 0 155 0 0 24 c0 15 -7 27 -18 30 -15 5 -20 25 -29
120 -17 162 -40 208 -141 278 -24 17 -41 36 -38 43 9 23 -44 35 -157 34 -96 0
-120 -4 -164 -24z"/>
<path d="M3960 7165 l0 -845 170 0 170 0 0 28 c0 19 -7 30 -22 37 -23 10 -23
11 -26 285 -1 151 0 290 3 308 5 28 8 31 25 22 17 -9 20 -7 20 14 0 23 3 24
53 22 l52 -3 3 -357 2 -356 167 2 c147 3 168 5 171 20 2 9 -6 25 -18 35 -20
19 -20 27 -24 799 -1 428 -4 784 -6 789 -1 6 1 18 5 28 7 16 -4 17 -144 17
l-151 0 0 -300 0 -300 -28 0 c-15 0 -38 -7 -51 -16 -33 -23 -67 -6 -75 38 -8
45 -9 554 -1 567 4 8 -42 11 -144 11 l-151 0 0 -845z"/>
<path d="M4900 7165 l0 -845 168 2 167 3 -4 25 c-3 23 -12 35 -33 42 -9 4 -12
1594 -3 1608 4 6 -49 10 -144 10 l-151 0 0 -845z"/>
<path d="M5385 7998 c-3 -7 -4 -386 -3 -843 l3 -830 148 -3 147 -3 0 30 c0 20
-6 30 -20 34 -20 5 -20 14 -20 426 0 259 4 421 10 421 5 0 14 -8 19 -17 8 -14
11 -7 13 32 1 28 1 70 0 95 -1 37 0 41 8 22 9 -20 38 -262 103 -837 l22 -200
103 -3 c84 -2 102 0 102 12 0 8 3 22 6 31 5 11 0 18 -15 22 -19 5 -22 11 -17
42 3 20 22 189 41 376 19 187 38 360 41 384 6 42 7 43 19 21 12 -23 13 -22 20
21 30 192 30 188 33 -369 l2 -543 147 3 c136 3 148 5 151 22 3 11 -6 27 -22
40 l-26 21 0 793 c0 436 2 797 5 803 4 5 -73 9 -199 9 -136 0 -206 -4 -206
-10 0 -21 -60 -637 -67 -692 l-8 -57 -32 27 -32 27 -37 320 c-21 176 -38 335
-38 353 l1 32 -199 0 c-150 0 -200 -3 -203 -12z"/>
<path d="M6690 7999 c0 -15 -114 -1123 -140 -1364 -11 -99 -22 -210 -26 -247
l-6 -68 176 0 176 0 0 29 c0 20 -6 32 -19 36 -16 5 -18 14 -14 73 6 107 13
134 28 129 8 -4 16 4 19 19 6 22 11 24 70 24 l64 0 6 -67 c3 -38 9 -107 12
-155 l6 -88 169 0 169 0 0 23 c0 16 -9 28 -25 35 -14 6 -25 18 -25 25 0 7 -41
357 -92 778 -50 420 -91 779 -91 797 l0 32 -229 0 c-163 0 -228 -3 -228 -11z
m284 -579 c4 -74 14 -207 22 -295 19 -223 22 -205 -28 -205 -23 0 -49 -7 -58
-15 -14 -13 -19 -13 -39 2 -23 16 -24 19 -17 122 8 132 36 421 42 441 5 13 7
13 18 -2 11 -15 14 -8 26 49 8 40 16 60 20 52 4 -8 11 -75 14 -149z"/>
<path d="M8270 7845 l0 -164 103 -3 102 -3 3 -677 2 -678 170 0 c161 0 170 1
170 19 0 20 -25 51 -41 51 -10 0 -13 1217 -3 1244 3 8 12 12 20 9 10 -4 17 2
21 16 5 20 12 21 104 21 98 0 99 0 99 24 0 13 -9 30 -20 37 -17 12 -19 28 -22
141 l-3 128 -352 0 -353 0 0 -165z"/>
<path d="M9110 7165 l0 -845 295 0 295 0 0 29 c0 20 -6 32 -19 36 -17 5 -19
19 -23 123 -3 65 0 123 5 130 7 9 -12 12 -91 12 -66 0 -102 -4 -104 -11 -7
-21 -46 1 -57 33 -12 33 -15 267 -5 306 4 12 12 22 20 22 7 0 18 9 24 20 10
18 21 20 115 20 115 0 128 8 81 52 -23 21 -25 32 -27 128 -2 58 0 111 4 118 6
9 -9 12 -67 12 -42 0 -76 -4 -76 -9 0 -20 -34 -21 -54 -1 -19 18 -21 35 -24
144 -4 122 6 175 29 160 6 -3 13 3 16 15 5 20 12 21 119 21 l114 0 0 26 c0 17
-6 28 -20 31 -18 5 -20 15 -22 107 -1 55 -2 116 -1 134 l0 32 -263 0 -264 0 0
-845z"/>
<path d="M9810 7166 l0 -846 170 0 170 0 0 25 c0 14 -8 29 -20 35 -19 10 -20
21 -20 340 0 317 1 330 19 330 11 0 21 9 24 21 5 19 11 21 39 15 18 -3 39 -13
48 -21 21 -22 28 -134 29 -462 l1 -283 160 0 160 0 0 25 c0 17 -8 29 -25 37
l-25 11 0 288 c0 345 -5 367 -96 446 -30 26 -54 55 -54 64 0 18 9 22 67 34 45
9 89 62 102 125 14 67 14 77 -4 84 -12 4 -15 27 -15 113 0 171 -37 289 -113
362 -25 24 -43 50 -41 56 11 29 -60 38 -318 43 l-258 4 0 -846z m405 550 c44
-19 50 -42 49 -181 -1 -151 -4 -159 -66 -189 -48 -23 -54 -24 -70 -9 -16 14
-18 36 -18 185 0 158 1 168 19 168 10 0 21 9 24 20 6 24 16 25 62 6z"/>
<path d="M2502 7467 c-12 -17 -45 -57 -73 -87 -115 -124 -247 -316 -327 -475
-70 -138 -92 -220 -92 -339 0 -101 1 -105 38 -171 69 -125 207 -223 367 -261
90 -22 347 -30 446 -14 41 7 93 14 117 17 23 3 42 8 42 12 0 4 -30 3 -67 -2
-38 -5 -142 -7 -233 -4 -150 4 -172 7 -240 32 -272 103 -403 274 -386 505 7
93 18 139 65 252 60 144 130 253 283 446 54 67 95 122 91 122 -5 0 -18 -15
-31 -33z"/>
<path d="M5297 7416 c-13 -88 -7 -188 13 -236 l19 -45 0 125 c0 70 -6 143 -13
165 l-12 40 -7 -49z"/>
<path d="M5730 6309 c0 -7 -7 -17 -16 -23 -14 -11 -12 -21 22 -89 34 -69 41
-77 66 -77 32 0 35 -15 -28 132 -27 63 -44 85 -44 57z"/>
<path d="M3068 6163 c6 -2 18 -2 25 0 6 3 1 5 -13 5 -14 0 -19 -2 -12 -5z"/>
<path d="M3800 6094 c0 -50 42 -182 86 -272 36 -74 61 -109 122 -170 121 -121
219 -162 388 -162 212 0 386 75 518 222 54 59 77 101 117 208 l27 75 368 3
c203 1 378 0 389 -2 15 -4 57 -81 165 -303 218 -450 765 -1542 884 -1766 564
-1061 911 -1551 1180 -1667 89 -38 164 -19 242 61 l37 38 -34 -5 c-32 -5 -38
-2 -63 31 -32 41 -32 39 16 170 33 90 33 90 33 280 0 176 -2 201 -33 345 -31
149 -62 272 -97 390 -9 30 -30 111 -46 180 -70 303 -167 602 -301 933 -44 109
-78 200 -75 203 2 2 31 -3 63 -12 49 -14 123 -18 419 -23 l360 -6 5 -125 5
-125 354 -3 c245 -1 357 1 361 9 16 25 -4 60 -51 89 l-49 30 -2 252 c-1 139
-2 267 -2 283 0 17 3 40 8 53 l7 22 -315 0 -316 0 0 -130 0 -130 -336 0 -335
0 2 -22 c5 -33 -8 -48 -39 -48 -37 1 -127 39 -187 80 -65 44 -232 211 -325
325 -41 50 -152 169 -246 266 -197 201 -241 268 -202 307 9 9 8 15 -8 26 -17
13 -17 17 -6 37 12 18 12 23 0 30 -18 12 -1712 11 -1762 -1 -22 -5 -51 -17
-65 -28 -66 -48 -144 -46 -95 2 8 9 12 20 9 26 -4 6 -186 10 -521 10 -415 0
-520 3 -542 14 -15 7 -46 16 -69 19 -40 5 -43 4 -43 -19z m2783 -126 c81 -38
121 -72 239 -201 55 -62 153 -166 217 -232 64 -66 193 -200 286 -298 93 -98
206 -209 251 -247 70 -59 84 -76 92 -112 6 -24 24 -92 42 -153 95 -330 166
-645 200 -883 24 -165 26 -392 6 -470 -21 -78 -59 -136 -102 -157 -36 -17 -37
-18 -18 -34 21 -17 44 -62 44 -87 0 -39 -125 -56 -217 -29 -157 47 -506 521
-868 1180 -153 280 -855 1702 -855 1734 0 17 46 19 340 17 l285 -1 58 -27z"/>
<path d="M8440 6081 c-778 -4 -1416 -7 -1417 -9 -1 -1 -21 -19 -45 -39 l-43
-38 1473 0 c1298 0 1474 -2 1482 -15 5 -8 10 -77 10 -152 0 -131 4 -150 26
-129 5 5 137 82 294 171 157 90 296 172 310 182 l25 20 -25 -6 c-108 -23 -212
-38 -218 -31 -4 4 -1 10 6 12 6 3 12 11 12 19 0 12 -31 14 -179 14 -98 0 -205
1 -237 3 -32 2 -696 1 -1474 -2z"/>
<path d="M8316 12971 c-19 -20 -24 -31 -16 -36 17 -10 68 41 54 55 -7 7 -19 1
-38 -19z"/>
<path d="M5918 12874 c6 -10 24 -35 40 -54 22 -25 33 -32 41 -24 8 7 -3 22
-40 54 -28 24 -47 35 -41 24z"/>
<path d="M8896 12284 c-25 -19 -44 -39 -41 -45 11 -16 22 -10 59 36 21 25 35
45 33 45 -2 0 -25 -16 -51 -36z"/>
<path d="M5247 12303 c-8 -7 41 -63 55 -63 16 0 8 27 -15 48 -25 24 -30 26
-40 15z"/>
<path d="M9276 11904 c-25 -19 -44 -39 -41 -45 11 -16 22 -10 59 36 21 25 35
45 33 45 -2 0 -25 -16 -51 -36z"/>
<path d="M4670 11580 c24 -30 45 -57 47 -59 2 -3 8 0 15 7 8 8 2 18 -22 39
-78 65 -85 67 -40 13z"/>
<path d="M9708 11471 c-38 -31 -45 -41 -35 -50 13 -10 19 -5 75 71 18 25 13
23 -40 -21z"/>
<path d="M3610 10575 c0 -14 73 -94 81 -89 16 10 9 21 -36 58 -25 21 -45 34
-45 31z"/>
<path d="M3215 10123 c38 -50 65 -67 65 -40 -1 6 -24 30 -53 52 l-52 40 40
-52z"/>
<path d="M11582 9587 c-91 -91 -103 -107 -81 -107 16 0 189 171 189 187 0 24
-15 13 -108 -80z"/>
<path d="M2420 9385 c0 -14 73 -94 81 -89 16 10 9 21 -36 58 -25 21 -45 34
-45 31z"/>
<path d="M12151 9126 c-25 -25 -29 -35 -18 -39 16 -6 67 41 67 61 0 20 -15 14
-49 -22z"/>
<path d="M1756 8813 c-7 -7 52 -73 66 -73 17 0 7 27 -20 53 -30 29 -35 31 -46
20z"/>
<path d="M12985 8310 c-29 -30 -27 -53 2 -34 24 15 46 51 35 58 -5 3 -22 -8
-37 -24z"/>
<path d="M12620 5757 c46 -59 54 -65 66 -46 6 11 -16 33 -81 82 -26 19 -24 15
15 -36z"/>
<path d="M12110 5402 c0 -5 13 -21 29 -36 36 -34 54 -16 20 20 -22 23 -49 32
-49 16z"/>
<path d="M11240 4532 c0 -4 15 -23 34 -41 35 -34 56 -29 36 9 -16 29 -70 54
-70 32z"/>
<path d="M3877 3614 c-25 -30 -26 -34 -9 -34 20 0 52 29 52 48 0 24 -17 19
-43 -14z"/>
<path d="M5398 2002 c-26 -20 -46 -41 -44 -47 6 -22 29 -8 63 38 19 26 33 47
31 47 -1 -1 -24 -18 -50 -38z"/>
<path d="M8725 1920 c22 -39 78 -100 86 -95 17 11 10 21 -43 66 -29 24 -48 37
-43 29z"/>
</g>
</svg>
